<?xml version="1.0" encoding="utf-8"?>
<!-- Generator: Adobe Illustrator 24.1.2, SVG Export Plug-In . SVG Version: 6.00 Build 0)  -->
<svg version="1.1" id="Layer_1" xmlns="http://www.w3.org/2000/svg" xmlns:xlink="http://www.w3.org/1999/xlink" x="0px" y="0px"
	 viewBox="0 0 84.8 12.8" style="enable-background:new 0 0 84.8 12.8;" xml:space="preserve">
<style type="text/css">
	.st0{enable-background:new    ;}
</style>
<g id="Layer_2_1_">
	<g id="Layer_1-2">
		<g>
			<g class="st0">
				<path d="M5.9,9.3L0,6.7V5.3l5.9-2.5v1.7L1.8,6l4.1,1.6V9.3z"/>
				<path d="M6.4,10.4l2.1-8.9h1.2l-2.2,8.9H6.4z"/>
			</g>
			<g class="st0">
				<path d="M17.7,5.9l-1.6,0.3c-0.1-0.3-0.2-0.6-0.4-0.7S15.3,5.2,15,5.2c-0.4,0-0.7,0.1-1,0.4S13.6,6.4,13.6,7
					c0,0.7,0.1,1.3,0.4,1.6s0.6,0.5,1,0.5c0.3,0,0.6-0.1,0.8-0.3s0.3-0.5,0.4-0.9l1.6,0.3c-0.2,0.7-0.5,1.3-1,1.7s-1.1,0.6-1.9,0.6
					c-0.9,0-1.6-0.3-2.2-0.9s-0.8-1.4-0.8-2.4c0-1,0.3-1.8,0.8-2.4s1.3-0.9,2.2-0.9c0.8,0,1.4,0.2,1.8,0.5S17.5,5.2,17.7,5.9z"/>
				<path d="M18.6,7.1c0-0.5,0.1-1.1,0.4-1.6s0.7-0.9,1.1-1.2s1-0.4,1.7-0.4c0.9,0,1.7,0.3,2.3,0.9S25,6.2,25,7.1
					c0,0.9-0.3,1.7-0.9,2.3s-1.4,0.9-2.3,0.9c-0.6,0-1.1-0.1-1.6-0.4S19.3,9.4,19,8.9S18.6,7.8,18.6,7.1z M20.3,7.2
					c0,0.6,0.1,1.1,0.4,1.4s0.7,0.5,1.1,0.5s0.8-0.2,1.1-0.5s0.4-0.8,0.4-1.4c0-0.6-0.1-1.1-0.4-1.4s-0.7-0.5-1.1-0.5
					S21,5.4,20.7,5.7S20.3,6.5,20.3,7.2z"/>
				<path d="M32,10.3h-1.5V9.4c-0.3,0.4-0.6,0.6-0.9,0.8s-0.7,0.3-1,0.3c-0.7,0-1.3-0.3-1.8-0.9s-0.8-1.4-0.8-2.4
					c0-1.1,0.2-1.9,0.7-2.4s1.1-0.8,1.9-0.8c0.7,0,1.3,0.3,1.8,0.9V1.7H32V10.3z M27.6,7c0,0.7,0.1,1.1,0.3,1.4
					c0.3,0.4,0.6,0.6,1.1,0.6c0.4,0,0.7-0.2,1-0.5s0.4-0.8,0.4-1.4c0-0.7-0.1-1.2-0.4-1.5s-0.6-0.5-1-0.5c-0.4,0-0.7,0.2-1,0.5
					S27.6,6.4,27.6,7z"/>
				<path d="M33.6,3.2V1.7h1.6v1.5H33.6z M33.6,10.3V4h1.6v6.2H33.6z"/>
				<path d="M42.6,10.3H41V7.1c0-0.7,0-1.1-0.1-1.3s-0.2-0.4-0.3-0.5s-0.3-0.2-0.6-0.2c-0.3,0-0.5,0.1-0.8,0.2S38.8,5.8,38.7,6
					s-0.1,0.7-0.1,1.4v2.8h-1.6V4h1.5V5c0.5-0.7,1.2-1.1,2.1-1.1c0.4,0,0.7,0.1,1,0.2s0.5,0.3,0.7,0.5s0.3,0.4,0.3,0.7
					s0.1,0.6,0.1,1.1V10.3z"/>
				<path d="M44.1,10.7l1.9,0.2c0,0.2,0.1,0.4,0.2,0.5c0.2,0.1,0.4,0.2,0.7,0.2c0.4,0,0.8-0.1,1-0.2c0.1-0.1,0.3-0.2,0.3-0.4
					c0.1-0.1,0.1-0.4,0.1-0.8V9.3c-0.5,0.7-1.1,1-1.9,1c-0.8,0-1.5-0.4-2-1.1c-0.4-0.6-0.6-1.3-0.6-2.1c0-1,0.3-1.8,0.8-2.4
					s1.1-0.8,1.9-0.8c0.8,0,1.4,0.3,1.9,1V4H50v5.6c0,0.7-0.1,1.3-0.2,1.6s-0.3,0.6-0.5,0.9s-0.5,0.4-0.9,0.5s-0.8,0.2-1.4,0.2
					c-1.1,0-1.8-0.2-2.2-0.5s-0.7-0.8-0.7-1.4C44.1,10.8,44.1,10.8,44.1,10.7z M45.6,7c0,0.7,0.1,1.1,0.4,1.5s0.6,0.5,0.9,0.5
					c0.4,0,0.7-0.2,1-0.5s0.4-0.8,0.4-1.4c0-0.6-0.1-1.1-0.4-1.4s-0.6-0.5-1-0.5c-0.4,0-0.7,0.2-1,0.5S45.6,6.4,45.6,7z"/>
				<path d="M51.6,1.7h3.4c0.7,0,1.2,0,1.5,0.1s0.6,0.2,0.9,0.4s0.5,0.4,0.7,0.7s0.3,0.6,0.3,1c0,0.4-0.1,0.8-0.3,1.1
					s-0.5,0.6-0.9,0.8c0.5,0.2,0.9,0.4,1.2,0.8s0.4,0.8,0.4,1.3c0,0.4-0.1,0.8-0.3,1.1s-0.4,0.7-0.7,0.9s-0.7,0.4-1.2,0.4
					c-0.3,0-1,0.1-2.1,0.1h-2.9V1.7z M53.4,3.1v2h1.1c0.7,0,1.1,0,1.3,0c0.3,0,0.5-0.1,0.7-0.3s0.3-0.4,0.3-0.7
					c0-0.3-0.1-0.5-0.2-0.6s-0.4-0.3-0.7-0.3c-0.2,0-0.7,0-1.5,0H53.4z M53.4,6.5v2.3H55c0.6,0,1,0,1.2-0.1c0.3,0,0.5-0.2,0.6-0.3
					S57,8,57,7.7C57,7.4,57,7.2,56.8,7s-0.3-0.3-0.5-0.4s-0.7-0.1-1.5-0.1H53.4z"/>
				<path d="M60.3,10.3V1.7h1.6v8.6H60.3z"/>
				<path d="M63.2,7.1c0-0.5,0.1-1.1,0.4-1.6s0.7-0.9,1.1-1.2s1-0.4,1.7-0.4c0.9,0,1.7,0.3,2.3,0.9s0.9,1.4,0.9,2.3
					c0,0.9-0.3,1.7-0.9,2.3s-1.4,0.9-2.3,0.9c-0.6,0-1.1-0.1-1.6-0.4s-0.9-0.6-1.2-1.1S63.2,7.8,63.2,7.1z M64.9,7.2
					c0,0.6,0.1,1.1,0.4,1.4s0.7,0.5,1.1,0.5s0.8-0.2,1.1-0.5S68,7.8,68,7.1c0-0.6-0.1-1.1-0.4-1.4s-0.7-0.5-1.1-0.5
					s-0.8,0.2-1.1,0.5S64.9,6.5,64.9,7.2z"/>
				<path d="M70.8,10.7l1.9,0.2c0,0.2,0.1,0.4,0.2,0.5c0.2,0.1,0.4,0.2,0.7,0.2c0.4,0,0.8-0.1,1-0.2c0.1-0.1,0.3-0.2,0.3-0.4
					c0.1-0.1,0.1-0.4,0.1-0.8V9.3c-0.5,0.7-1.1,1-1.9,1c-0.8,0-1.5-0.4-2-1.1c-0.4-0.6-0.6-1.3-0.6-2.1c0-1,0.3-1.8,0.8-2.4
					s1.1-0.8,1.9-0.8c0.8,0,1.4,0.3,1.9,1V4h1.5v5.6c0,0.7-0.1,1.3-0.2,1.6s-0.3,0.6-0.5,0.9s-0.5,0.4-0.9,0.5s-0.8,0.2-1.4,0.2
					c-1.1,0-1.8-0.2-2.2-0.5s-0.7-0.8-0.7-1.4C70.8,10.8,70.8,10.8,70.8,10.7z M72.3,7c0,0.7,0.1,1.1,0.4,1.5s0.6,0.5,0.9,0.5
					c0.4,0,0.7-0.2,1-0.5S75,7.7,75,7.1c0-0.6-0.1-1.1-0.4-1.4s-0.6-0.5-1-0.5c-0.4,0-0.7,0.2-1,0.5S72.3,6.4,72.3,7z"/>
			</g>
			<g class="st0">
				<path d="M78.9,9.3V7.6L83,6l-4.1-1.6V2.8l5.9,2.5v1.4L78.9,9.3z"/>
			</g>
		</g>
	</g>
</g>
</svg>
