<svg width="596" height="175" viewBox="0 0 596 175" fill="none" xmlns="http://www.w3.org/2000/svg">
<path d="M399.774 -324.869L343.695 -254.138C212.116 -209.285 67.1592 -229.339 -45.0214 -307.947L-76.887 -390.797L-104.352 -379.642L-72.4266 -296.766C-86.7973 -229.892 -116.925 -166.391 -160.139 -111.896C-203.353 -57.4008 -258.316 -13.5949 -320.155 15.6367L-408.103 3.47089L-412.701 32.7566L-324.742 44.9089C-222.635 136.221 -170.067 272.753 -183.755 411.12L-239.791 481.797L-216.961 499.898L-160.903 429.194C-29.3399 384.284 115.606 404.352 227.776 482.973L259.679 565.853L287.107 554.668L255.203 471.765C269.575 404.905 299.696 341.418 342.897 286.93C386.098 232.443 441.043 188.637 502.864 159.397L590.858 171.555L595.494 142.299L507.547 130.157C405.415 38.8245 352.822 -97.7263 366.525 -236.037L422.605 -306.769L399.774 -324.869ZM312.335 -214.585L257.354 -145.238C171.603 -115.855 77.1582 -128.88 4.16098 -180.253L-27.1451 -261.565C74.8908 -203.262 196.719 -186.371 312.335 -214.585ZM68.5578 69.3987L-3.32437 59.4609C6.09638 51.7605 14.706 43.0573 22.3381 33.5198C30.1621 23.6515 36.8422 12.8545 42.3676 1.44843L68.5578 69.3987ZM69.9092 -9.47132C92.5721 -0.953176 117.144 2.3732 141.976 0.284531L96.002 58.2704L69.9092 -9.47132ZM63.9705 98.671L18.1563 156.455C14.376 131.829 5.39131 108.722 -8.19564 88.6833L63.9705 98.671ZM86.8007 116.772L112.855 184.461C90.1987 175.98 65.6478 172.667 40.8373 174.744L86.8007 116.772ZM114.218 105.601L186.104 115.585C166.894 131.368 151.235 151.232 140.377 173.591L114.218 105.601ZM118.832 76.3714L164.636 18.6006C168.412 43.2226 177.392 66.3264 190.975 86.3626L118.832 76.3714ZM170.181 -35.2895C130.85 -22.6592 88.0943 -28.3786 54.0232 -50.6623L21.5662 -135.011C84.169 -102.455 156.733 -92.4585 226.729 -106.612L170.181 -35.2895ZM26.3259 -40.2602C21.6988 -20.4457 12.65 -1.65256 -0.0959082 14.614C-12.8419 30.8805 -28.9307 44.1685 -47.0741 53.4137L-136.614 41.0369C-106.614 21.8518 -79.803 -2.3705 -57.4367 -30.496C-35.329 -58.3798 -17.8786 -89.9779 -5.86559 -123.873L26.3259 -40.2602ZM-52.4422 82.5486C-22.5835 110.273 -6.92732 150.428 -9.72878 191.626L-66.7673 263.567C-68.9238 192.207 -95.2397 123.829 -141.178 70.3055L-52.4422 82.5486ZM12.6324 210.318C51.9257 197.659 94.6818 203.378 128.719 225.679L161.189 310.037C98.6 277.514 26.0435 267.458 -43.9158 281.641L12.6324 210.318ZM156.44 215.273C161.074 195.461 170.125 176.671 182.87 160.406C195.615 144.14 211.701 130.851 229.84 121.599L319.344 133.97C258.935 172.689 212.556 231.212 188.665 298.868L156.44 215.273ZM235.243 92.4704C205.388 64.7928 189.686 24.6451 192.51 -16.5567L249.559 -88.5114C251.703 -17.161 278.009 51.2308 323.983 104.76L235.243 92.4704ZM-137.262 -93.7852C-100.167 -140.678 -72.0698 -193.922 -54.6106 -250.41L-23.2814 -169.101C-32.5795 -125.522 -52.1787 -84.1327 -80.3306 -48.6255C-108.482 -13.1183 -144.312 15.4029 -184.622 34.3939L-270.944 22.4453C-219.914 -7.44912 -174.47 -46.961 -137.262 -93.7852ZM-275.495 51.7238L-189.199 63.6527C-122.544 123.025 -88.265 212.037 -97.3599 302.153L-152.363 371.526C-151.268 252.536 -195.45 137.762 -275.495 51.7238ZM-129.522 389.614L-74.5403 320.267C11.1519 290.881 105.634 303.936 178.606 355.289L209.912 436.601C107.885 378.262 -13.943 361.371 -129.522 389.614ZM237.355 425.449L206.058 344.101C215.367 300.531 234.968 259.153 263.114 223.653C291.261 188.152 327.079 159.632 367.377 140.632L453.688 152.594C402.701 182.527 357.311 222.072 320.167 268.92C283.024 315.768 254.872 368.98 237.355 425.449ZM458.288 123.332L371.979 111.393C305.349 52.0406 271.07 -36.9713 280.152 -127.097L335.155 -196.47C334.023 -77.5099 378.23 37.2835 458.288 123.332Z" fill="white" fill-opacity="0.06"/>
</svg>
