<svg xmlns="http://www.w3.org/2000/svg" viewBox="0 0 16 16"><defs><style>.cls-1{fill:#fff;}.cls-2{fill:#333;}</style></defs><g id="Layer_2" data-name="Layer 2"><g id="Layer_1-2" data-name="Layer 1"><rect class="cls-1" width="16" height="16"/><path class="cls-2" d="M11.76,13.39A7.21,7.21,0,0,1,8.62,14a5.3,5.3,0,0,1-4-1.49,5.44,5.44,0,0,1-1.44-4A5.8,5.8,0,0,1,4.83,4.27,5.7,5.7,0,0,1,9.05,2.63,7.65,7.65,0,0,1,11.76,3V5.41a4.86,4.86,0,0,0-2.51-.65,3.31,3.31,0,0,0-2.49,1,3.57,3.57,0,0,0-1,2.63A3.57,3.57,0,0,0,6.7,10.9a3.16,3.16,0,0,0,2.41.94,5.12,5.12,0,0,0,2.65-.7Z"/></g></g></svg>