<svg width="65" height="63" viewBox="0 0 65 63" fill="none" xmlns="http://www.w3.org/2000/svg">
<path fill-rule="evenodd" clip-rule="evenodd" d="M32.5 0.289551C14.82 0.289551 0.5 14.6095 0.5 32.2895C0.5 46.4495 9.66 58.4095 22.38 62.6495C23.98 62.9295 24.58 61.9695 24.58 61.1295C24.58 60.3695 24.54 57.8495 24.54 55.1695C16.5 56.6495 14.42 53.2095 13.78 51.4095C13.42 50.4895 11.86 47.6495 10.5 46.8895C9.38 46.2896 7.78 44.8095 10.46 44.7696C12.98 44.7295 14.78 47.0895 15.38 48.0495C18.26 52.8895 22.86 51.5295 24.7 50.6895C24.98 48.6095 25.82 47.2095 26.74 46.4095C19.62 45.6095 12.18 42.8495 12.18 30.6095C12.18 27.1295 13.42 24.2495 15.46 22.0096C15.14 21.2096 14.02 17.9296 15.78 13.5296C15.78 13.5296 18.46 12.6896 24.58 16.8095C27.14 16.0896 29.86 15.7295 32.58 15.7295C35.3 15.7295 38.02 16.0896 40.58 16.8095C46.7 12.6496 49.38 13.5296 49.38 13.5296C51.14 17.9296 50.02 21.2096 49.7 22.0096C51.74 24.2495 52.98 27.0895 52.98 30.6095C52.98 42.8895 45.5 45.6095 38.38 46.4095C39.54 47.4095 40.54 49.3295 40.54 52.3295C40.54 56.6095 40.5 60.0495 40.5 61.1295C40.5 61.9695 41.1 62.9695 42.7 62.6495C49.0525 60.5048 54.5725 56.422 58.4831 50.9759C62.3937 45.5297 64.4981 38.9943 64.5 32.2895C64.5 14.6095 50.18 0.289551 32.5 0.289551Z" fill="white"/>
</svg>
