<svg width="88" height="60" viewBox="0 0 88 60" fill="none" xmlns="http://www.w3.org/2000/svg">
<path d="M87.3931 30.9733C87.3931 40.0354 84.2908 48.0806 77.9613 55.1905C75.6665 57.8414 73.8285 59.0976 72.5806 59.0976C72.1428 59.0976 71.6453 58.9698 71.319 58.6435C70.9819 58.3051 70.7898 57.8487 70.7834 57.3711C70.7834 56.6886 71.5882 55.6554 73.2195 54.1546C79.7884 47.8549 83.1027 40.0354 83.1027 30.7477C83.1027 20.424 79.6905 12.0716 72.8932 5.5952C71.5474 4.36626 70.8242 3.33037 70.8242 2.50926C70.8242 2.08511 71.0526 1.58756 71.4196 1.26129C71.7641 0.940014 72.2108 0.750374 72.6812 0.725667C74.1956 0.725667 76.4903 2.56364 79.3669 6.26133C84.7911 13.1564 87.51 21.4681 87.51 31.0712L87.3931 30.9733ZM0.5 28.684C0.5 19.622 3.59954 11.5768 9.91824 4.45327C12.2239 1.81866 14.0646 0.559814 15.3261 0.559814C15.7503 0.559814 16.2478 0.671289 16.5741 1.01387C16.8976 1.35373 17.1097 1.69087 17.1097 2.14493C17.1097 2.82737 16.2859 3.87414 14.66 5.47285C8.21894 11.8024 4.8312 19.5921 4.8312 28.8961C4.8312 39.2197 8.28691 47.6021 15.0733 54.0486C16.4436 55.2911 17.126 56.3406 17.126 57.1345C17.1212 57.3753 17.0673 57.6125 16.9677 57.8317C16.8682 58.051 16.725 58.2476 16.5469 58.4097C16.2095 58.7539 15.7534 58.9562 15.2717 58.9752C13.7029 58.9752 11.5333 57.1345 8.6458 53.4803C3.16452 46.6967 0.502719 38.4285 0.502719 28.6868L0.5 28.684ZM64.6632 53.5782H24.845C24.2055 53.5775 23.5922 53.3243 23.1385 52.8737C22.6848 52.423 22.4275 51.8114 22.4224 51.172C22.4224 49.7826 23.4556 48.7495 24.845 48.7495H64.6632C65.9247 48.7495 67.0857 49.7826 67.0857 51.172C67.0558 52.5613 66.0389 53.5782 64.6632 53.5782ZM42.912 21.2479C43.6216 21.1473 44.16 23.4692 44.2171 23.9668C44.3829 25.2392 43.9588 26.4709 43.3797 27.591C41.2127 31.8244 36.2154 35.223 37.5476 40.5629C38.1431 42.8576 39.3312 44.4563 43.0262 46.4248C41.7837 46.849 40.0381 46.0306 39.0648 45.3345C34.7173 42.3764 31.9549 37.5177 32.224 32.2077C32.342 30.5305 32.6308 28.8697 33.0859 27.2512C34.4454 22.6073 37.2214 18.5589 38.8364 14.0401C39.6602 11.8568 40.2529 9.2358 39.6004 6.95737C39.2571 5.82357 38.6832 4.77295 37.9147 3.87143C37.7053 3.60225 36.4574 2.18571 35.9598 2.357C38.1431 1.53318 40.0952 2.2999 41.993 3.43368C43.4531 4.31189 44.6004 5.55714 45.4623 6.97096C47.0937 9.57838 47.7435 12.5637 48.0697 15.5953C48.1812 16.8569 48.0262 19.902 49.4863 20.4975C51.017 21.1473 52.2052 18.5969 52.5314 17.5638C53.2384 15.2282 52.3167 12.9879 51.3977 10.8236C51.6125 11.2614 52.4309 11.7453 52.8006 12.0825L54.103 13.3305C55.6908 14.9591 56.6669 16.971 57.3194 19.138C57.9149 21.0929 58.1813 23.1049 58.2955 25.057C58.5674 29.1354 57.6457 33.3252 56.0144 37.0637C55.3298 38.7478 54.3737 40.3084 53.184 41.6831C52.0393 43.0289 50.4787 43.9044 49.2334 45.1524C52.1508 42.2187 53.725 37.4334 53.2982 33.7956C53.1103 31.6948 52.2742 29.7043 50.9056 28.0995C50.9056 28.0995 51.0768 29.4045 51.2318 30.2093C51.501 32.012 50.2965 33.907 48.8963 33.6922C47.8604 33.5808 48.3987 31.3567 48.5129 30.6498C48.8963 28.5399 48.4015 26.4709 47.6211 24.516C46.8707 22.659 45.4542 21.2016 43.2899 21.5279L42.912 21.2479Z" fill="white"/>
</svg>
