<svg width="65" height="65" viewBox="0 0 65 65" fill="none" xmlns="http://www.w3.org/2000/svg">
<path d="M48.884 35.3453V29.6547L44.6333 32.5L48.884 35.3453ZM52.2867 38.5293C52.2862 38.6034 52.2809 38.6773 52.2707 38.7507L52.2573 38.8253L52.228 38.9667L52.2013 39.0493C52.1886 39.0919 52.1735 39.1338 52.156 39.1747L52.1187 39.2547C52.1012 39.2935 52.0825 39.3317 52.0627 39.3693L52.012 39.4493C51.9511 39.546 51.8796 39.6354 51.7987 39.716L51.7293 39.7827C51.6984 39.8106 51.6664 39.8373 51.6333 39.8627L51.556 39.9213L51.5293 39.9427L33.444 52.0013C33.1646 52.1881 32.8361 52.2878 32.5 52.2878C32.1639 52.2878 31.8354 52.1881 31.556 52.0013L13.4707 39.94L13.444 39.9187C13.3831 39.8765 13.3252 39.8302 13.2707 39.78L13.2013 39.7133L13.116 39.6227L13.06 39.548C12.9899 39.4571 12.93 39.3587 12.8813 39.2547L12.844 39.172C12.8273 39.1308 12.8122 39.089 12.7987 39.0467L12.772 38.9667C12.7613 38.9187 12.7507 38.8707 12.7453 38.8227L12.7293 38.748C12.7191 38.6747 12.7138 38.6007 12.7133 38.5267V26.4707C12.7134 26.3966 12.7187 26.3226 12.7293 26.2493L12.7427 26.1773L12.772 26.0333L12.7987 25.9533C12.8619 25.7394 12.9711 25.5419 13.1187 25.3747L13.2013 25.284L13.2707 25.2173C13.3253 25.1673 13.3832 25.121 13.444 25.0787L13.4707 25.0573L31.556 13.0013C31.8355 12.8149 32.164 12.7154 32.5 12.7154C32.836 12.7154 33.1645 12.8149 33.444 13.0013L51.5293 25.0573L51.556 25.0787L51.636 25.1373L51.7293 25.2173C51.756 25.2387 51.7747 25.26 51.7987 25.284C51.88 25.3642 51.9516 25.4537 52.012 25.5507L52.0627 25.6307C52.0828 25.6682 52.1015 25.7064 52.1187 25.7453L52.156 25.8253C52.1747 25.868 52.188 25.9107 52.2013 25.9507L52.228 26.0333C52.2387 26.0813 52.2493 26.1293 52.2547 26.1773L52.2707 26.2493C52.281 26.3227 52.2863 26.3966 52.2867 26.4707V38.5293ZM32.5 0.5C14.828 0.5 0.5 14.8253 0.5 32.5C0.5 50.172 14.828 64.5 32.5 64.5C50.1747 64.5 64.5 50.1747 64.5 32.5C64.5 14.828 50.1747 0.5 32.5 0.5ZM32.5 28.4787L26.4867 32.5L32.5 36.5267L38.5133 32.5L32.5 28.4787ZM34.2013 39.476V47.4093L47.524 38.5293L41.572 34.548L34.2013 39.476ZM17.476 38.5267L30.7987 47.4067V39.476L23.428 34.5453L17.476 38.5267ZM47.524 26.4733L34.2013 17.5933V25.524L41.572 30.4573L47.524 26.4733ZM30.7987 25.524V17.5933L17.476 26.4733L23.428 30.4547L30.7987 25.524ZM16.116 29.6547V35.3453L20.3667 32.5L16.116 29.6547Z" fill="white"/>
</svg>
